<?xml version="1.0" encoding="utf-8"?>
<!-- Generator: Adobe Illustrator 19.0.0, SVG Export Plug-In . SVG Version: 6.00 Build 0)  -->
<svg version="1.1" xmlns="http://www.w3.org/2000/svg" xmlns:xlink="http://www.w3.org/1999/xlink" x="0px" y="0px"
	 viewBox="0 0 60 60" style="enable-background:new 0 0 60 60;" xml:space="preserve">
<style type="text/css">
	.st0{fill:none;}
</style>
<g id="Layer_2">
	<rect id="XMLID_1_" class="st0" width="60" height="60"/>
</g>
<g id="Layer_1">
	<g id="XMLID_888_">
		<path id="XMLID_999_" d="M51.8437996,22.6406002c0.2167015-1.2441998,0.7988014-2.4375,1.7597008-3.3983994
			C54.5644989,18.2831993,55.7559013,17.6991997,57,17.4843006c-1.2440987-0.2147999-2.4355011-0.7968006-3.3964996-1.7578011
			c-0.9608994-0.9608994-1.5429993-2.1522999-1.7597008-3.3964996c-0.2128983,1.2441998-0.7968979,2.4356003-1.7559013,3.3985004
			C49.125,16.6875,47.9336014,17.2695007,46.6913986,17.4843006c1.2422028,0.2148991,2.4336014,0.7988987,3.3964996,1.7579002
			C51.0469017,20.2031002,51.6309013,21.3964005,51.8437996,22.6406002z"/>
		<path id="XMLID_1002_" d="M51.8437996,27.4668007c-0.2128983,1.2460995-0.7968979,2.4354992-1.7559013,3.3983994
			c-0.9628983,0.9589996-2.1542969,1.5429993-3.3964996,1.7578011c1.2422028,0.2128983,2.4336014,0.7968979,3.3964996,1.7577972
			c0.9590034,0.9590034,1.5430031,2.152401,1.7559013,3.3965034c0.2167015-1.2441025,0.7988014-2.4375,1.7597008-3.3965034
			C54.5644989,33.419899,55.7559013,32.8358994,57,32.6230011c-1.2440987-0.2148018-2.4355011-0.7988014-3.3964996-1.7578011
			C52.642601,29.9022999,52.0605011,28.7129002,51.8437996,27.4668007z"/>
		<path id="XMLID_1005_" d="M51.8437996,42.6054001c-0.2128983,1.2442017-0.7968979,2.4356003-1.7559013,3.3964996
			c-0.9628983,0.9609985-2.1542969,1.5429993-3.3964996,1.7578011c1.2422028,0.214901,2.4336014,0.7989006,3.3964996,1.7578011
			c0.9590034,0.9609985,1.5430031,2.1542969,1.7559013,3.3964996c0.2167015-1.2422028,0.7988014-2.4355011,1.7597008-3.3964996
			C54.5644989,48.5586014,55.7559013,47.9746017,57,47.7597008c-1.2440987-0.2148018-2.4355011-0.7968025-3.3964996-1.7578011
			C52.642601,45.0410004,52.0605011,43.8496017,51.8437996,42.6054001z"/>
		<polygon id="XMLID_1009_" points="40.9902,11.5556002 3,30.8514996 3,33.6132011 3,33.785099 42.1152,13.9160004 42.1152,57 
			43.7461014,57 43.7461014,12.9160004 		"/>
		<path id="XMLID_1122_" d="M3,35.1855011V57h1.9843998C4.9375,56.9043007,4.8769999,56.8203011,4.7948999,56.7616997
			c-0.1522999-0.1093979-0.3397999-0.1288986-0.5351-0.0703011c0.1953001-0.1406975,0.3828001-0.3476982,0.5351-0.6133003
			c0.1524-0.2616997,0.2442002-0.5409966,0.2774-0.7987976c0.0351,0.2245979,0.125,0.410099,0.2772999,0.5195007
			c0.1524,0.1093979,0.3379002,0.1268997,0.5352001,0.0683975c-0.1973,0.1425018-0.3828001,0.3515015-0.5352001,0.6113014
			C5.25,56.6503983,5.1875,56.8260994,5.1387,57h5.8925996c-0.0274-0.0312996-0.0468998-0.0703011-0.0820999-0.0956993
			c-0.1503992-0.107502-0.3378992-0.1269989-0.5351-0.0704002c0.1972008-0.1406021,0.3847008-0.347599,0.5351-0.6113014
			c0.1524-0.2636986,0.2442007-0.5410004,0.2774-0.8008003c0.0351,0.2246017,0.1269007,0.410202,0.2772999,0.5195999
			c0.1524,0.1093025,0.3399,0.1268997,0.5352001,0.0703011c-0.1953001,0.1406021-0.3828001,0.3496017-0.5352001,0.6113014
			c-0.0702991,0.1231003-0.1268997,0.25-0.1698999,0.3769989h5.6484013
			c-0.1269016-0.0489006-0.2636013-0.0644989-0.4121017-0.0214996c0.1953011-0.1406021,0.3848-0.347702,0.5352001-0.6133003
			c0.1522999-0.2616997,0.2441006-0.5410004,0.2772999-0.7988014c0.0332012,0.2246017,0.125,0.4101028,0.277401,0.5195007
			c0.1522999,0.1094017,0.3377991,0.1269989,0.535099,0.0684013c-0.1973,0.142498-0.3827991,0.3514977-0.535099,0.6112976
			C17.6152,56.8437004,17.5879002,56.9217987,17.5547009,57h5.3046989c0.1464996-0.1309013,0.2851009-0.2891006,0.4022999-0.4902992
			c0.1504002-0.2635994,0.2422009-0.5410004,0.277401-0.8008003c0.0331993,0.2247009,0.1229992,0.4122009,0.2772999,0.5214996
			c0.1504002,0.1074982,0.3379002,0.125,0.5352001,0.0663986c-0.1973,0.142601-0.3848,0.3516006-0.5352001,0.6133003
			C23.7987995,56.9393997,23.7910004,56.9706993,23.7754002,57h5.3925991
			c0.0879002-0.1016006,0.1718006-0.2168007,0.2480011-0.3476982c0.1523991-0.2637024,0.2421989-0.5410004,0.2773991-0.8008003
			c0.0332012,0.2245979,0.125,0.4101982,0.2772999,0.5214996c0.1504002,0.107399,0.3379002,0.1269989,0.5352001,0.0683975
			C30.3241997,56.5722008,30.1522999,56.7655983,30.0077991,57h5.4180012
			c0.0488014-0.0663986,0.1015015-0.1269989,0.1445007-0.2032013c0.1523972-0.2635994,0.2441978-0.5429001,0.2773972-0.8006973
			c0.0351028,0.2245979,0.125,0.410099,0.2773018,0.5194969c0.1523018,0.1094017,0.3398018,0.1269035,0.5351982,0.0683022
			C36.5195007,56.6875,36.3886986,56.8339005,36.2655983,57h4.6543007V15.9238005L3,35.1855011z M5.3495998,53.2089005
			C5.1973,53.4746017,5.1073999,53.7518997,5.0723,54.0116997c-0.0331998-0.2266006-0.125-0.4101982-0.2774-0.5195007
			c-0.1522999-0.1093979-0.3397999-0.1289978-0.5351-0.0704002c0.1953001-0.1405983,0.3828001-0.3495979,0.5351-0.6131973
			c0.1524-0.2618027,0.2442002-0.5410995,0.2774-0.7989006c0.0351,0.2245979,0.125,0.4101982,0.2772999,0.5195999
			c0.1524,0.107399,0.3379002,0.1268997,0.5352001,0.0682983C5.6875,52.7402,5.5019999,52.9472008,5.3495998,53.2089005z
			 M5.3495998,49.9393997C5.1973,50.2050018,5.1073999,50.482399,5.0723,50.7402
			c-0.0331998-0.2246017-0.125-0.4081993-0.2774-0.517601c-0.1522999-0.1093979-0.3397999-0.1288986-0.5351-0.0702972
			c0.1953001-0.142601,0.3828001-0.3496017,0.5351-0.6133003c0.1524-0.2636032,0.2442002-0.5410004,0.2774-0.8008003
			c0.0351,0.2246971,0.125,0.4101982,0.2772999,0.5214996c0.1524,0.1074982,0.3379002,0.1269989,0.5352001,0.0683975
			C5.6875,49.4706993,5.5019999,49.6777,5.3495998,49.9393997z M5.3495998,46.669899
			C5.1973,46.9336014,5.1073999,47.2108994,5.0723,47.4706993c-0.0331998-0.2245979-0.125-0.4101982-0.2774-0.5195999
			c-0.1522999-0.107399-0.3397999-0.1268997-0.5351-0.0703011c0.1953001-0.1405983,0.3828001-0.347599,0.5351-0.6112976
			c0.1524-0.2637024,0.2442002-0.5410004,0.2774-0.8008003c0.0351,0.2245979,0.125,0.4101982,0.2772999,0.5195007
			C5.5019999,46.097599,5.6875,46.1152,5.8848,46.0586014C5.6875,46.1991997,5.5019999,46.4081993,5.3495998,46.669899z
			 M5.3495998,43.3983994C5.1973,43.6640015,5.1073999,43.9413986,5.0723,44.2010994
			c-0.0331998-0.2245979-0.125-0.410099-0.2774-0.5195007c-0.1522999-0.1093979-0.3397999-0.1268997-0.5351-0.0702972
			C4.4551001,43.4706993,4.6426001,43.2635994,4.7948999,43c0.1524-0.2636986,0.2442002-0.5429993,0.2774-0.8008003
			c0.0351,0.2246017,0.125,0.410099,0.2772999,0.5195007c0.1524,0.1093979,0.3379002,0.1269989,0.5352001,0.0684013
			C5.6875,42.9296989,5.5019999,43.1385994,5.3495998,43.3983994z M5.3495998,40.1288986
			C5.1973,40.3945007,5.1073999,40.6717987,5.0723,40.9315987c-0.0331998-0.2245979-0.125-0.4101982-0.2774-0.5194969
			C4.6426001,40.3027,4.4551001,40.2831993,4.2598,40.3418007c0.1953001-0.1407013,0.3828001-0.3496017,0.5351-0.6133003
			c0.1524-0.2616997,0.2442002-0.5410004,0.2774-0.7988014c0.0351,0.2246017,0.125,0.4101028,0.2772999,0.5195007
			c0.1524,0.1094017,0.3379002,0.1268997,0.5352001,0.0683022C5.6875,39.660099,5.5019999,39.8671989,5.3495998,40.1288986z
			 M5.3495998,36.8592987C5.1973,37.125,5.1073999,37.4023018,5.0723,37.660099
			c-0.0331998-0.2245979-0.125-0.4081993-0.2774-0.5175972c-0.1522999-0.1093025-0.3397999-0.1289024-0.5351-0.0703011
			c0.1953001-0.1425018,0.3828001-0.3496017,0.5351-0.6133003c0.1524-0.2635994,0.2442002-0.5410004,0.2774-0.7988014
			c0.0351,0.2246017,0.125,0.4081993,0.2772999,0.5195999c0.1524,0.1074028,0.3379002,0.1268997,0.5352001,0.0683022
			C5.6875,36.3905983,5.5019999,36.597599,5.3495998,36.8592987z M8.4277,54.9160004
			c-0.1542997,0.2636986-0.2440996,0.5410004-0.2772999,0.8008003c-0.0352001-0.2246017-0.125-0.410202-0.2774-0.5195999
			c-0.1523004-0.1093025-0.3398004-0.1268997-0.5351-0.0683022c0.1952996-0.1425972,0.3827996-0.3495979,0.5351-0.6133003
			c0.1504002-0.2636986,0.2421999-0.5409966,0.2774-0.8007965c0.0332003,0.2245979,0.1230001,0.4120979,0.2772999,0.5214996
			c0.1504002,0.1093979,0.3379002,0.1268997,0.5352001,0.0683975C8.7656002,54.4472008,8.5781002,54.6543007,8.4277,54.9160004z
			 M8.4277,51.6464005C8.2754002,51.910099,8.1836004,52.1875,8.1504002,52.4472008
			C8.1152,52.222599,8.0234003,52.0371017,7.8730001,51.9277c-0.1523004-0.1094017-0.3398004-0.1269989-0.5351-0.0703011
			c0.1952996-0.1405983,0.3827996-0.3476982,0.5351-0.6112976c0.1504002-0.2637024,0.2421999-0.5410995,0.2774-0.8008003
			c0.0332003,0.2245979,0.125,0.410099,0.2772999,0.5195007c0.1504002,0.1093979,0.3379002,0.1269989,0.5352001,0.0702972
			C8.7656002,51.1757011,8.5781002,51.3847008,8.4277,51.6464005z M8.4277,48.375
			c-0.1542997,0.2655983-0.2440996,0.5429001-0.2772999,0.8027c-0.0352001-0.2246017-0.1269999-0.4101982-0.2774-0.5195007
			c-0.1523004-0.1093979-0.3398004-0.1288986-0.5351-0.0703011c0.1952996-0.1406975,0.3827996-0.3476982,0.5351-0.6132965
			c0.1504002-0.2617035,0.2421999-0.5410004,0.2774-0.7989006c0.0332003,0.2246971,0.1230001,0.4101982,0.2772999,0.5195999
			c0.1504002,0.1093979,0.3379002,0.1268997,0.5352001,0.0682983C8.7656002,47.9062004,8.5781002,48.1132011,8.4277,48.375z
			 M8.4277,45.1054001c-0.1522999,0.2657013-0.2440996,0.5429993-0.2772999,0.8027992
			c-0.0352001-0.2245979-0.1269999-0.4101982-0.2774-0.5195999c-0.1523004-0.1092987-0.3398004-0.1288986-0.5351-0.0703011
			c0.1952996-0.1405983,0.3827996-0.3495979,0.5351-0.6132965c0.1504002-0.2617035,0.2421999-0.5410004,0.2774-0.7988014
			c0.0332003,0.2245979,0.125,0.4101982,0.2772999,0.5195007c0.1504002,0.1074982,0.3379002,0.1269989,0.5352001,0.0683975
			C8.7656002,44.6366997,8.5781002,44.8437004,8.4277,45.1054001z M8.4277,41.8358994
			c-0.1542997,0.2637024-0.2440996,0.5429993-0.2772999,0.8008003c-0.0352001-0.2245979-0.1269999-0.4081993-0.2774-0.517601
			c-0.1523004-0.1093979-0.3398004-0.1288986-0.5351-0.0702972c0.1952996-0.142601,0.3827996-0.3496017,0.5351-0.6133003
			c0.1504002-0.2637024,0.2421999-0.5410004,0.2774-0.8008003c0.0332003,0.2245979,0.1230001,0.4120979,0.2772999,0.5214996
			c0.1504002,0.1093979,0.3379002,0.1269989,0.5352001,0.0684013C8.7656002,41.3671989,8.5781002,41.5741997,8.4277,41.8358994z
			 M8.4277,38.5663986c-0.1522999,0.2636032-0.2440996,0.5410004-0.2772999,0.8008003
			c-0.0352001-0.2246971-0.1269999-0.4101982-0.2774-0.5195999c-0.1523004-0.107399-0.3398004-0.1268997-0.5351-0.0702972
			c0.1952996-0.1406021,0.3827996-0.3476028,0.5351-0.6113014C8.0234003,37.9023018,8.1152,37.625,8.1504002,37.3652
			c0.0332003,0.2246017,0.125,0.4101982,0.2772999,0.5195007c0.1504002,0.1093979,0.3379002,0.1288986,0.5352001,0.0703011
			C8.7656002,38.0956993,8.5781002,38.3046989,8.4277,38.5663986z M8.4277,35.294899
			c-0.1542997,0.2656021-0.2440996,0.5429993-0.2772999,0.8027c-0.0352001-0.2245979-0.1269999-0.410099-0.2774-0.5195007
			c-0.1523004-0.1093979-0.3398004-0.1269989-0.5351-0.0702972c0.1952996-0.1406021,0.3827996-0.347702,0.5351-0.6114006
			c0.1504002-0.2635994,0.2421999-0.5429001,0.2774-0.8007011C8.1836004,34.3203011,8.2734003,34.5057983,8.4277,34.6152
			c0.1504002,0.1094017,0.3379002,0.1269989,0.5352001,0.0684013C8.7656002,34.8260994,8.5781002,35.0331993,8.4277,35.294899z
			 M11.5038996,53.3535004c-0.1522999,0.2636986-0.2421999,0.5410004-0.2772999,0.8008003
			c-0.0331993-0.2246017-0.125-0.410202-0.2774-0.5195999c-0.1503992-0.1093025-0.3378992-0.1289024-0.5351-0.0683022
			c0.1972008-0.1425972,0.3847008-0.3495979,0.5351-0.6133003c0.1524-0.2636986,0.2442007-0.5429993,0.2774-0.8007965
			c0.0351,0.2245979,0.1269007,0.4101982,0.2772999,0.5194969c0.1524,0.1094017,0.3399,0.1289024,0.5352001,0.0684013
			C11.8437996,52.8828011,11.6562996,53.0918007,11.5038996,53.3535004z M11.5038996,50.0820007
			c-0.1522999,0.2636986-0.2421999,0.5429993-0.2772999,0.8027c-0.0331993-0.2246017-0.125-0.410099-0.2774-0.5195007
			c-0.1503992-0.1094017-0.3378992-0.1269989-0.5351-0.0703011c0.1972008-0.1405983,0.3847008-0.3495979,0.5351-0.6133003
			c0.1524-0.2616997,0.2442007-0.5390968,0.2774-0.7987976c0.0351,0.2245979,0.1269007,0.410099,0.2772999,0.5195007
			c0.1524,0.107399,0.3399,0.1269989,0.5352001,0.0683975C11.8437996,49.6132011,11.6562996,49.8222008,11.5038996,50.0820007z
			 M11.5038996,46.8125c-0.1522999,0.2635994-0.2421999,0.5429001-0.2772999,0.8027
			c-0.0331993-0.2266006-0.125-0.4101982-0.2774-0.5195007c-0.1503992-0.1093979-0.3378992-0.1288986-0.5351-0.0703011
			c0.1972008-0.1406975,0.3828001-0.3476982,0.5351-0.6132965c0.1524-0.2637024,0.2442007-0.5410004,0.2774-0.8008003
			c0.0351,0.2245979,0.1269007,0.410099,0.2772999,0.5214996c0.1524,0.1093979,0.3399,0.1268997,0.5352001,0.0682983
			C11.8437996,46.3437004,11.6562996,46.5507011,11.5038996,46.8125z M11.5038996,43.5429001
			c-0.1503992,0.2636986-0.2421999,0.5429993-0.2772999,0.8008003c-0.0331993-0.222599-0.125-0.410099-0.2774-0.5195007
			c-0.1503992-0.1093979-0.3378992-0.1269989-0.5351-0.0684013c0.1972008-0.1425972,0.3847008-0.3495979,0.5351-0.6132965
			c0.1524-0.2636032,0.2442007-0.5410004,0.2774-0.8007011c0.0351,0.2264977,0.1269007,0.4120979,0.2772999,0.5195007
			c0.1524,0.1093979,0.3399,0.1288986,0.5352001,0.0702972C11.8437996,43.0722008,11.6562996,43.2812004,11.5038996,43.5429001z
			 M11.5038996,40.2714005c-0.1522999,0.2657013-0.2421999,0.5429993-0.2772999,0.8027992
			c-0.0331993-0.2245979-0.125-0.4101982-0.2774-0.5195007c-0.1503992-0.1074982-0.3378992-0.1269989-0.5351-0.0704002
			c0.1972008-0.1405983,0.3847008-0.347599,0.5351-0.6112976c0.1524-0.2637024,0.2442007-0.5429993,0.2774-0.8008003
			c0.0351,0.2245979,0.1269007,0.4101982,0.2772999,0.5195999c0.1524,0.1092987,0.3399,0.1268997,0.5352001,0.0682983
			C11.8437996,39.8027,11.6562996,40.0097008,11.5038996,40.2714005z M11.5038996,37.0038986
			c-0.1503992,0.2636032-0.2421999,0.5410004-0.2772999,0.8008003c-0.0331993-0.2246971-0.125-0.4101982-0.2774-0.5195999
			c-0.1503992-0.1093979-0.3378992-0.1288986-0.5351-0.0702972c0.1972008-0.1406021,0.3847008-0.3476028,0.5351-0.6113014
			c0.1524-0.2636986,0.2442007-0.5429993,0.2774-0.8008003c0.0351,0.2246017,0.1269007,0.4101982,0.2772999,0.5195007
			c0.1524,0.1093979,0.3399,0.1288986,0.5352001,0.0683975C11.8437996,36.5331993,11.6562996,36.7402,11.5038996,37.0038986z
			 M11.5038996,33.732399c-0.1522999,0.2637024-0.2421999,0.5429993-0.2772999,0.8008003
			c-0.0331993-0.2226982-0.125-0.4081993-0.2774-0.517601c-0.1503992-0.1093979-0.3378992-0.1269989-0.5351-0.0702972
			c0.1972008-0.142601,0.3847008-0.3496017,0.5351-0.6133003c0.1524-0.2616997,0.2442007-0.5410004,0.2774-0.7988014
			c0.0351,0.2246017,0.1269007,0.410099,0.2772999,0.5195007c0.1524,0.107399,0.3399,0.1269989,0.5352001,0.0684013
			C11.8437996,33.2635994,11.6542997,33.4706993,11.5038996,33.732399z M14.5819998,55.0605011
			c-0.1522999,0.2636986-0.2421999,0.5410004-0.2772999,0.8008003c-0.0332003-0.2246017-0.125-0.410202-0.2774-0.5195007
			c-0.1503-0.1094017-0.3378-0.1269989-0.5351-0.0704002c0.1973-0.1406021,0.3848-0.3496017,0.5351-0.6113014
			c0.1524-0.2636986,0.2441998-0.5410004,0.2774-0.8008003c0.0351,0.2246017,0.125,0.410202,0.2772999,0.5195999
			c0.1524,0.1093025,0.3399,0.1268997,0.5352001,0.0683022C14.9218998,54.5898018,14.7343998,54.7988014,14.5819998,55.0605011z
			 M14.5819998,51.7890015c-0.1522999,0.2656975-0.2421999,0.5429993-0.2772999,0.8027992
			c-0.0332003-0.2266006-0.125-0.410202-0.2774-0.5195999c-0.1503-0.1093025-0.3378-0.1289024-0.5351-0.0703011
			c0.1973-0.1405983,0.3828001-0.347599,0.5351-0.6133003c0.1524-0.2616997,0.2441998-0.5410004,0.2774-0.7987976
			c0.0351,0.2245979,0.125,0.4101982,0.2772999,0.5194969c0.1524,0.1094017,0.3399,0.1270027,0.5352001,0.0684013
			C14.9218998,51.3203011,14.7343998,51.5273018,14.5819998,51.7890015z M14.5819998,48.5195007
			c-0.1522999,0.2655983-0.2421999,0.5429993-0.2772999,0.8008003c-0.0332003-0.2246017-0.125-0.4081993-0.2774-0.517601
			c-0.1522999-0.1094017-0.3378-0.1288986-0.5351-0.0703011c0.1973-0.1405983,0.3848-0.3495979,0.5351-0.6133003
			c0.1524-0.2616997,0.2441998-0.5410004,0.2774-0.7987976c0.0351,0.2245979,0.125,0.410099,0.2772999,0.5195007
			c0.1524,0.107399,0.3399,0.1269989,0.5352001,0.0683975C14.9218998,48.0507011,14.7343998,48.2578011,14.5819998,48.5195007z
			 M14.5819998,45.25c-0.1522999,0.2655983-0.2421999,0.5410004-0.2772999,0.8007011
			c-0.0332003-0.2246017-0.125-0.4101028-0.2774-0.5195007c-0.1503-0.107399-0.3378-0.1288986-0.5351-0.0683022
			c0.1973-0.1425972,0.3848-0.3496971,0.5351-0.6132965c0.1524-0.2637024,0.2441998-0.5430031,0.2774-0.8008003
			c0.0351,0.2245979,0.125,0.410099,0.2772999,0.5214996c0.1504002,0.1093979,0.3399,0.125,0.5352001,0.0682983
			C14.9218998,44.7793007,14.7343998,44.9882011,14.5819998,45.25z M14.5819998,41.9804001
			c-0.1522999,0.2636986-0.2421999,0.5410004-0.2772999,0.8008003c-0.0332003-0.2246017-0.125-0.410099-0.2774-0.5195007
			c-0.1503-0.107399-0.3378-0.1269989-0.5351-0.0703011c0.1973-0.1406975,0.3848-0.3476982,0.5351-0.6113968
			c0.1524-0.2636032,0.2441998-0.5410004,0.2774-0.8007011c0.0351,0.2245979,0.125,0.410099,0.2772999,0.5195007
			c0.1524,0.107399,0.3399,0.1268997,0.5352001,0.0702972C14.9218998,41.5097008,14.7343998,41.7187004,14.5819998,41.9804001z
			 M14.5819998,38.7089005c-0.1522999,0.2657013-0.2421999,0.5429993-0.2772999,0.8027992
			c-0.0332003-0.2245979-0.125-0.4101982-0.2774-0.5195007c-0.1503-0.1093979-0.3378-0.1289978-0.5351-0.0704002
			c0.1973-0.1405983,0.3848-0.3495979,0.5351-0.6112976c0.1524-0.2637024,0.2441998-0.5429993,0.2774-0.8008003
			c0.0351,0.2226982,0.125,0.4101982,0.2772999,0.5195999c0.1524,0.1092987,0.3399,0.1268997,0.5352001,0.0682983
			C14.9218998,38.2402,14.7343998,38.4491997,14.5819998,38.7089005z M14.5819998,35.4393997
			c-0.1522999,0.2656021-0.2421999,0.5429993-0.2772999,0.8027992c-0.0332003-0.2266006-0.125-0.4101982-0.2774-0.5195999
			c-0.1503-0.1093979-0.3378-0.1288986-0.5351-0.0722008c0.1973-0.1386986,0.3848-0.3476982,0.5351-0.6113968
			c0.1524-0.2616997,0.2441998-0.5410004,0.2774-0.7988014c0.0351,0.2246017,0.125,0.4101982,0.2772999,0.5195007
			c0.1524,0.1093979,0.3399,0.1269989,0.5352001,0.0683975C14.9218998,34.9706993,14.7343998,35.1777,14.5819998,35.4393997z
			 M14.5819998,32.1679001c-0.1522999,0.2657013-0.2421999,0.5449982-0.2772999,0.8027992
			c-0.0332003-0.2245979-0.125-0.4081993-0.2774-0.517601c-0.1522999-0.1093979-0.3378-0.1288986-0.5351-0.0702972
			c0.1973-0.142601,0.3848-0.3496017,0.5351-0.6133003c0.1524-0.2637005,0.2441998-0.5410004,0.2774-0.8008003
			c0.0351,0.2265987,0.125,0.4102001,0.2772999,0.5214996c0.1504002,0.1074009,0.3399,0.1270008,0.5352001,0.0683994
			C14.9218998,31.7010994,14.7323999,31.9062004,14.5819998,32.1679001z M17.6602001,53.4961014
			c-0.152401,0.2655983-0.2441998,0.5429001-0.277401,0.8006973c-0.0331993-0.2245979-0.125-0.4081993-0.2772999-0.517498
			c-0.1504002-0.1094017-0.3398991-0.1289024-0.5352001-0.0704002c0.1953011-0.1406021,0.3848-0.3496017,0.5352001-0.6132011
			c0.1522999-0.2617989,0.2441006-0.5410004,0.2772999-0.7989006c0.0332012,0.2246017,0.125,0.410202,0.277401,0.5195999
			c0.1522999,0.1074028,0.3377991,0.1268997,0.535099,0.0683022C17.9979992,53.0273018,17.8125,53.2342987,17.6602001,53.4961014z
			 M17.6602001,50.2265015c-0.152401,0.2656975-0.2441998,0.5410004-0.277401,0.8008003
			c-0.0331993-0.2246017-0.125-0.4101028-0.2772999-0.5195007c-0.1504002-0.1094017-0.3398991-0.1270027-0.5352001-0.0684013
			c0.1953011-0.142601,0.3848-0.3495979,0.5352001-0.6133003c0.1522999-0.2635994,0.2441006-0.5410004,0.2772999-0.8007011
			c0.0332012,0.2246017,0.125,0.4101028,0.277401,0.5214005c0.1502991,0.107502,0.3377991,0.1270027,0.535099,0.0684013
			C17.9979992,49.7578011,17.8104992,49.9648018,17.6602001,50.2265015z M17.6602001,46.9570007
			c-0.152401,0.2636986-0.2441998,0.5410004-0.277401,0.8008003c-0.0331993-0.2246017-0.125-0.410202-0.2772999-0.5195999
			c-0.1504002-0.1093025-0.3398991-0.1268997-0.5352001-0.0703011c0.1953011-0.1405983,0.3848-0.347599,0.5352001-0.6113014
			c0.1522999-0.2636986,0.2441006-0.5410004,0.2772999-0.8008003c0.0332012,0.2246017,0.125,0.410202,0.277401,0.5195999
			c0.1522999,0.1074028,0.3377991,0.1269035,0.535099,0.0703011C17.9979992,46.4863014,17.8125,46.6953011,17.6602001,46.9570007z
			 M17.6602001,43.6855011c-0.152401,0.2655983-0.2441998,0.5429993-0.277401,0.8027
			c-0.0331993-0.2246017-0.125-0.4101028-0.2772999-0.5195007c-0.1504002-0.1094017-0.3398991-0.1288986-0.5352001-0.0703011
			c0.1953011-0.1405983,0.3848-0.3476982,0.5352001-0.6133003c0.1522999-0.2616997,0.2441006-0.5410004,0.2772999-0.7987976
			c0.0332012,0.2245979,0.125,0.410099,0.277401,0.5194969c0.1522999,0.1094017,0.3377991,0.1270027,0.535099,0.0684013
			C17.9979992,43.2168007,17.8125,43.4257011,17.6602001,43.6855011z M17.6602001,40.4160004
			c-0.152401,0.2655983-0.2441998,0.5429001-0.277401,0.8027c-0.0331993-0.2246017-0.125-0.410099-0.2772999-0.5195007
			c-0.1504002-0.1093979-0.3398991-0.1288986-0.5352001-0.0703011c0.1953011-0.1406975,0.3848-0.3495979,0.5352001-0.6133003
			c0.1522999-0.2616997,0.2441006-0.5409966,0.2772999-0.7987976c0.0332012,0.2245979,0.125,0.410099,0.277401,0.5195007
			c0.1502991,0.107399,0.3377991,0.1268997,0.535099,0.0683975C17.9979992,39.9472008,17.8125,40.1543007,17.6602001,40.4160004z
			 M17.6602001,37.1464005c-0.152401,0.2657013-0.2441998,0.5429993-0.277401,0.8008003
			c-0.0331993-0.2246017-0.125-0.4081993-0.2772999-0.5175018c-0.1504002-0.1093979-0.3398991-0.1289978-0.5352001-0.0704002
			c0.1953011-0.142498,0.3848-0.3495979,0.5352001-0.6131973c0.1522999-0.2637024,0.2441006-0.5410995,0.2772999-0.8008003
			c0.0332012,0.2245979,0.125,0.410099,0.277401,0.5214996c0.1502991,0.107399,0.3377991,0.1268997,0.535099,0.0682983
			C17.9979992,36.6777,17.8104992,36.8847008,17.6602001,37.1464005z M17.6602001,33.8768997
			c-0.152401,0.2636986-0.2441998,0.5410004-0.277401,0.8008003c-0.0331993-0.2246017-0.125-0.4101982-0.2772999-0.5195007
			c-0.1504002-0.1093979-0.3398991-0.1269989-0.5352001-0.0703011c0.1953011-0.1406975,0.3848-0.3476982,0.5352001-0.6113968
			c0.1522999-0.2636032,0.2441006-0.5410004,0.2772999-0.8008003c0.0332012,0.2246971,0.125,0.4101982,0.277401,0.5195999
			c0.1522999,0.1093979,0.3377991,0.1288986,0.535099,0.0702972C17.9979992,33.4062004,17.8125,33.6152,17.6602001,33.8768997z
			 M17.6602001,30.6054001c-0.152401,0.2637005-0.2441998,0.5429993-0.277401,0.8027992
			c-0.0331993-0.2245998-0.125-0.4102001-0.2772999-0.5195999c-0.1504002-0.1092987-0.3398991-0.1268997-0.5352001-0.0702991
			c0.1953011-0.1406002,0.3848-0.3476009,0.5352001-0.6112995c0.1522999-0.2637005,0.2441006-0.5430012,0.2772999-0.8008003
			c0.0332012,0.2245998,0.125,0.4102001,0.277401,0.5194988c0.1522999,0.1094017,0.3377991,0.1270008,0.535099,0.0684013
			C17.9979992,30.1366997,17.8104992,30.3437004,17.6602001,30.6054001z M20.7383003,55.2030983
			c-0.152401,0.2637024-0.2441998,0.5410004-0.277401,0.8008003c-0.035099-0.2245979-0.125-0.4081993-0.2772999-0.5195999
			c-0.1522999-0.107399-0.3397999-0.1268997-0.5352001-0.0702972c0.1954002-0.1406021,0.3829002-0.3476028,0.5352001-0.6113014
			c0.1504002-0.2636986,0.2422009-0.5410004,0.2772999-0.8008003c0.0332012,0.2246017,0.1231003,0.410202,0.277401,0.5214996
			c0.1504002,0.107399,0.3379002,0.1269989,0.535099,0.0684013C21.0762005,54.732399,20.8887005,54.9413986,20.7383003,55.2030983z
			 M20.7383003,51.9336014c-0.152401,0.2635994-0.2441998,0.5410004-0.277401,0.8006973
			c-0.035099-0.2245979-0.125-0.410099-0.2772999-0.5194969c-0.1522999-0.1094017-0.3397999-0.1269035-0.5352001-0.0703011
			c0.1954002-0.1406021,0.3829002-0.347702,0.5352001-0.6113014c0.1504002-0.2636986,0.2422009-0.5410004,0.2772999-0.8008003
			c0.0332012,0.2246017,0.125,0.4101028,0.277401,0.5195007c0.1504002,0.1094017,0.3379002,0.1269989,0.535099,0.0703011
			C21.0762005,51.4628983,20.8887005,51.6717987,20.7383003,51.9336014z M20.7383003,48.6621017
			c-0.152401,0.2655983-0.2441998,0.5429001-0.277401,0.8027c-0.035099-0.2246017-0.125-0.4101028-0.2772999-0.5195007
			c-0.1522999-0.1094017-0.3397999-0.1289024-0.5352001-0.0703011c0.1954002-0.1407013,0.3829002-0.3476982,0.5352001-0.6133003
			C20.3339996,48,20.4258003,47.7206993,20.4608994,47.4628983c0.0332012,0.2246017,0.1231003,0.4101028,0.277401,0.5195007
			c0.1504002,0.1094017,0.3379002,0.1268997,0.535099,0.0683022C21.0762005,48.1932983,20.8887005,48.4023018,20.7383003,48.6621017
			z M20.7383003,45.3925018c-0.152401,0.2656975-0.2441998,0.5429993-0.277401,0.8027992
			c-0.035099-0.2266006-0.125-0.410202-0.2772999-0.5195999c-0.1522999-0.1093025-0.3397999-0.1289024-0.5352001-0.0703011
			c0.1954002-0.1405983,0.3829002-0.3496017,0.5352001-0.6132011c0.1504002-0.2617989,0.2422009-0.5410995,0.2772999-0.7989006
			c0.0332012,0.2246017,0.125,0.410202,0.277401,0.5195999c0.1504002,0.1074028,0.3379002,0.1269035,0.535099,0.0683022
			C21.0762005,44.9238014,20.8887005,45.1307983,20.7383003,45.3925018z M20.7383003,42.1230011
			c-0.1543007,0.2655983-0.2441998,0.5429993-0.277401,0.8008003c-0.035099-0.2246017-0.125-0.4082031-0.2772999-0.517601
			c-0.1522999-0.1094017-0.3397999-0.1288986-0.5352001-0.0703011c0.1954002-0.142601,0.3829002-0.3495979,0.5352001-0.6133003
			c0.1504002-0.2636986,0.2422009-0.5410004,0.2772999-0.8008003c0.0332012,0.2246017,0.1231003,0.410202,0.277401,0.5214996
			c0.1504002,0.1074028,0.3379002,0.1270027,0.535099,0.0684013C21.0762005,41.6543007,20.8887005,41.8613014,20.7383003,42.1230011
			z M20.7383003,38.8535004c-0.152401,0.2636986-0.2441998,0.5410004-0.277401,0.8008003
			c-0.035099-0.2246017-0.125-0.410202-0.2772999-0.5195999c-0.1522999-0.107399-0.3397999-0.1268997-0.5352001-0.0703011
			c0.1954002-0.1405983,0.3829002-0.347599,0.5352001-0.6113014c0.1504002-0.2636986,0.2422009-0.5409966,0.2772999-0.8007965
			c0.0332012,0.2245979,0.125,0.4101982,0.277401,0.5194969c0.1504002,0.1094017,0.3379002,0.1270027,0.535099,0.0704002
			C21.0762005,38.3828011,20.8887005,38.5918007,20.7383003,38.8535004z M20.7383003,35.5820007
			c-0.1543007,0.2655983-0.2441998,0.5429993-0.277401,0.8027c-0.035099-0.2246017-0.125-0.410099-0.2772999-0.5195007
			s-0.3397999-0.1288986-0.5352001-0.0703011c0.1954002-0.1405983,0.3829002-0.3476982,0.5352001-0.6112976
			c0.1522999-0.2637024,0.2422009-0.5430031,0.2772999-0.8008003c0.0332012,0.2245979,0.1231003,0.410099,0.277401,0.5195007
			c0.1504002,0.1093979,0.3379002,0.1269989,0.535099,0.0683975C21.0762005,35.1132011,20.8887005,35.3222008,20.7383003,35.5820007
			z M20.7383003,32.3125c-0.152401,0.2655983-0.2441998,0.5429001-0.277401,0.8027
			c-0.035099-0.2246017-0.125-0.4101982-0.2772999-0.5195007c-0.1522999-0.1093979-0.3397999-0.1288986-0.5352001-0.0703011
			c0.1954002-0.1406975,0.3829002-0.3496971,0.5352001-0.6132984c0.1504002-0.2616997,0.2422009-0.5410004,0.2772999-0.7989006
			c0.0332012,0.2247009,0.125,0.4102001,0.277401,0.5195999c0.1504002,0.1094017,0.3379002,0.1269016,0.535099,0.0683002
			C21.0762005,31.8437004,20.8887005,32.0507011,20.7383003,32.3125z M20.7383003,29.0429001
			c-0.1543007,0.2656994-0.2441998,0.5429993-0.277401,0.8008003c-0.035099-0.2245998-0.125-0.4082012-0.2772999-0.517601
			c-0.1522999-0.1092987-0.3397999-0.1288986-0.5352001-0.0702991c0.1954002-0.142601,0.3829002-0.3495998,0.5352001-0.6133003
			c0.1522999-0.2635994,0.2422009-0.5410004,0.2772999-0.8006992c0.0332012,0.2264996,0.1231003,0.410099,0.277401,0.5213985
			c0.1504002,0.1075001,0.3379002,0.1270008,0.535099,0.0684013C21.0762005,28.5741997,20.8887005,28.7812004,20.7383003,29.0429001
			z M23.8164005,53.6405983c-0.1522999,0.2637024-0.2441006,0.5410004-0.2772999,0.8008003
			c-0.0352001-0.2245979-0.1270008-0.4101982-0.277401-0.5195999c-0.1522999-0.1092987-0.3397999-0.1268997-0.535099-0.0702972
			c0.1952991-0.1406021,0.3827991-0.3476028,0.535099-0.6113014c0.1504002-0.2636986,0.2422009-0.5410004,0.277401-0.8008003
			c0.0331993,0.2246017,0.125,0.410202,0.2772999,0.5195007c0.1504002,0.1093979,0.3379002,0.1269989,0.5352001,0.0704002
			C24.1543007,53.169899,23.9668007,53.3788986,23.8164005,53.6405983z M23.8164005,50.3690987
			c-0.1522999,0.2656021-0.2441006,0.5430031-0.2772999,0.8027c-0.0352001-0.2245979-0.1270008-0.410099-0.277401-0.5194969
			c-0.1522999-0.1094017-0.3397999-0.1269035-0.535099-0.0703011c0.1952991-0.1406021,0.3827991-0.3496017,0.535099-0.6113014
			c0.1504002-0.2636986,0.2422009-0.5410004,0.277401-0.8008003c0.0331993,0.2246017,0.125,0.4101028,0.2772999,0.5195007
			c0.1504002,0.1094017,0.3379002,0.1269989,0.5352001,0.0684013
			C24.1543007,49.9003983,23.9668007,50.1092987,23.8164005,50.3690987z M23.8164005,47.0996017
			C23.6641006,47.3652,23.5723,47.6405983,23.5391006,47.9003983c-0.0352001-0.2246971-0.1270008-0.4101982-0.277401-0.5195999
			c-0.1522999-0.1093979-0.3397999-0.1268997-0.535099-0.0682983c0.1952991-0.142601,0.3827991-0.3496017,0.535099-0.6133003
			c0.1504002-0.2636986,0.2422009-0.5410004,0.277401-0.8008003c0.0331993,0.2266006,0.125,0.410202,0.2772999,0.5214996
			c0.1504002,0.1094017,0.3379002,0.1268997,0.5352001,0.0683022
			C24.1543007,46.6307983,23.9668007,46.8378983,23.8164005,47.0996017z M23.8164005,43.8300018
			c-0.1522999,0.2636986-0.2441006,0.5429993-0.2772999,0.8007965c-0.0352001-0.2245979-0.1270008-0.4081993-0.277401-0.5175972
			c-0.1522999-0.1113014-0.3397999-0.1289024-0.535099-0.0722008c0.1952991-0.1406021,0.3827991-0.347702,0.535099-0.6113014
			c0.1504002-0.2617989,0.2422009-0.5410995,0.277401-0.7989006c0.0331993,0.2246017,0.125,0.410202,0.2772999,0.517601
			c0.1504002,0.1094017,0.3379002,0.1289024,0.5352001,0.0703011
			C24.1543007,43.3613014,23.9668007,43.5682983,23.8164005,43.8300018z M23.8164005,40.5605011
			c-0.1522999,0.2655983-0.2441006,0.5410004-0.2772999,0.8008003c-0.0352001-0.2246017-0.1270008-0.410202-0.277401-0.5195007
			c-0.1522999-0.1094017-0.3397999-0.1289024-0.535099-0.0684013c0.1952991-0.142601,0.3827991-0.3495979,0.535099-0.6133003
			c0.1504002-0.2636986,0.2422009-0.5429001,0.277401-0.8008003c0.0331993,0.2246017,0.1229992,0.410202,0.2772999,0.5214996
			c0.1504002,0.1074028,0.3379002,0.125,0.5352001,0.0664024C24.1543007,40.0898018,23.9668007,40.2988014,23.8164005,40.5605011z
			 M23.8164005,37.2910004c-0.1522999,0.2636986-0.2441006,0.5410004-0.2772999,0.8008003
			c-0.0352001-0.2246017-0.1270008-0.4121017-0.277401-0.5195999c-0.1522999-0.1093025-0.3397999-0.1268997-0.535099-0.0703011
			c0.1952991-0.1405983,0.3827991-0.347599,0.535099-0.6113014c0.1504002-0.2636986,0.2422009-0.5409966,0.277401-0.8007965
			c0.0331993,0.2245979,0.125,0.4101982,0.2772999,0.5194969c0.1504002,0.107502,0.3379002,0.1270027,0.5352001,0.0704002
			C24.1543007,36.8203011,23.9668007,37.0273018,23.8164005,37.2910004z M23.8164005,34.0195007
			c-0.1543007,0.2655983-0.2441006,0.5429993-0.2772999,0.8027c-0.0352001-0.2246017-0.1270008-0.410099-0.277401-0.5195007
			c-0.1522999-0.1094017-0.3397999-0.1288986-0.535099-0.0703011c0.1952991-0.1405983,0.3827991-0.3495979,0.535099-0.6112976
			c0.1504002-0.2657013,0.2422009-0.5430031,0.277401-0.802803c0.0331993,0.2246017,0.125,0.4121017,0.2772999,0.5215034
			c0.1504002,0.1093979,0.3379002,0.1269989,0.5352001,0.0683975
			C24.1543007,33.5507011,23.9668007,33.7597008,23.8164005,34.0195007z M23.8164005,30.75
			c-0.1522999,0.2635994-0.2441006,0.5410004-0.2772999,0.8006992c-0.0352001-0.2245998-0.1270008-0.410099-0.277401-0.5194988
			c-0.1522999-0.1074009-0.3397999-0.1268997-0.535099-0.0703011c0.1952991-0.1406002,0.3827991-0.3477001,0.535099-0.6112995
			c0.1504002-0.2637005,0.2422009-0.5410004,0.277401-0.8008003c0.0331993,0.2266006,0.125,0.4101009,0.2772999,0.5195007
			c0.1504002,0.1093998,0.3379002,0.1289005,0.5352001,0.0702991C24.1543007,30.2793007,23.9668007,30.4881992,23.8164005,30.75z
			 M23.8164005,27.4785004c-0.1522999,0.2656002-0.2441006,0.544899-0.2772999,0.8027
			c-0.0352001-0.2245998-0.1270008-0.4082012-0.277401-0.517601c-0.1522999-0.1112995-0.3397999-0.1288986-0.535099-0.0721989
			c0.1952991-0.1407013,0.3827991-0.3477001,0.535099-0.6114006c0.1504002-0.2635994,0.2422009-0.5410004,0.277401-0.8006992
			c0.0331993,0.2264996,0.125,0.410099,0.2772999,0.5194988c0.1504002,0.1093998,0.3379002,0.1289005,0.5352001,0.0684013
			C24.1543007,27.0116997,23.9668007,27.2187004,23.8164005,27.4785004z M26.8925991,55.3456993
			c-0.1523991,0.2656021-0.2421989,0.5429001-0.2773991,0.8027c-0.0331993-0.2266006-0.125-0.4101982-0.2772999-0.5195007
			C26.1875,55.5195007,26,55.5,25.8027,55.5586014c0.1973-0.1407013,0.3827991-0.347702,0.5352001-0.6133003
			c0.1522999-0.2616997,0.2441006-0.5410004,0.2772999-0.7989006c0.0352001,0.2247009,0.125,0.4101982,0.2773991,0.5195999
			c0.1523018,0.107399,0.3398018,0.1268997,0.5351009,0.0682983C27.2324009,54.8768997,27.0449009,55.0839005,26.8925991,55.3456993
			z M26.8925991,52.0760994C26.7402,52.3398018,26.6504002,52.6171989,26.6152,52.8788986
			c-0.0331993-0.2245979-0.125-0.4101982-0.2772999-0.5214996C26.1875,52.25,26,52.2304001,25.8027,52.2890015
			c0.1973-0.1406021,0.3827991-0.3476028,0.5352001-0.6133003C26.4902,51.4121017,26.5820007,51.1347008,26.6152,50.875
			c0.0352001,0.2246017,0.125,0.4121017,0.2773991,0.5214005c0.1504002,0.1093979,0.3398018,0.1269989,0.5351009,0.0684013
			C27.2324009,51.6054001,27.0429993,51.8143997,26.8925991,52.0760994z M26.8925991,48.8065987
			C26.7402,49.0703011,26.6504002,49.347599,26.6152,49.607399c-0.0331993-0.2245979-0.125-0.4101982-0.2772999-0.5195007
			C26.1875,48.9804001,26,48.9608994,25.8027,49.0195007c0.1973-0.142601,0.3827991-0.3496017,0.5352001-0.6133003
			C26.4902,48.1425018,26.5820007,47.8652,26.6152,47.6054001c0.0352001,0.2246017,0.125,0.4101982,0.2773991,0.5195999
			c0.1523018,0.1092987,0.3398018,0.1268997,0.5351009,0.0703011C27.2324009,48.3358994,27.0449009,48.544899,26.8925991,48.8065987
			z M26.8925991,45.535099C26.7402,45.8007011,26.6504002,46.0780983,26.6152,46.3378983
			c-0.0331993-0.2246971-0.1229992-0.4101982-0.2772999-0.5195999C26.1875,45.7089005,26,45.6893997,25.8027,45.75
			c0.1973-0.142601,0.3848-0.3496017,0.5352001-0.6133003c0.1522999-0.2636986,0.2441006-0.5429993,0.2772999-0.8008003
			c0.0352001,0.2246017,0.125,0.410202,0.2773991,0.5195007c0.1504002,0.1094017,0.3398018,0.1288986,0.5351009,0.0684013
			C27.2324009,45.0663986,27.0429993,45.2753983,26.8925991,45.535099z M26.8925991,42.2655983
			c-0.1523991,0.2656021-0.2421989,0.5430031-0.2773991,0.8027c-0.0331993-0.2264977-0.125-0.410099-0.2772999-0.5194969
			C26.1875,42.4393997,26,42.419899,25.8027,42.4785004C26,42.3378983,26.1854992,42.1288986,26.3379002,41.8652
			c0.1522999-0.2616997,0.2441006-0.5410004,0.2772999-0.7988014c0.0352001,0.2246017,0.125,0.4101028,0.2773991,0.5195007
			c0.1523018,0.107399,0.3398018,0.1269989,0.5351009,0.0684013C27.2324009,41.7967987,27.0449009,42.0038986,26.8925991,42.2655983
			z M26.8925991,38.9961014c-0.1523991,0.2635994-0.2421989,0.5429001-0.2773991,0.8027
			c-0.0331993-0.2266006-0.125-0.410202-0.2772999-0.5195007C26.1875,39.169899,26,39.1503983,25.8027,39.2089005
			c0.1973-0.1406021,0.3827991-0.347599,0.5352001-0.6132011c0.1522999-0.2617989,0.2441006-0.5410004,0.2772999-0.7989006
			c0.0352001,0.222702,0.125,0.410202,0.2773991,0.5195999c0.1504002,0.1093025,0.3398018,0.1268997,0.5351009,0.0683022
			C27.2324009,38.5273018,27.0429993,38.7342987,26.8925991,38.9961014z M26.8925991,35.7265015
			C26.7402,35.9921989,26.6504002,36.2675018,26.6152,36.5293007c-0.0331993-0.2246017-0.125-0.4121017-0.2772999-0.5214996
			C26.1875,35.9003983,26,35.8807983,25.8027,35.9393997c0.1973-0.1405983,0.3848-0.3495979,0.5352001-0.6133003
			C26.4902,35.0625,26.5820007,34.785099,26.6152,34.5253983C26.6504002,34.75,26.7402,34.9375,26.8925991,35.0467987
			c0.1504002,0.107502,0.3398018,0.125,0.5351009,0.0684013C27.2324009,35.2557983,27.0429993,35.4648018,26.8925991,35.7265015z
			 M26.8925991,32.4550018C26.7402,32.7206993,26.6504002,32.9980011,26.6152,33.2578011
			c-0.0331993-0.2246017-0.125-0.410202-0.2772999-0.5195999C26.1875,32.6307983,26,32.6113014,25.8027,32.669899
			c0.1973-0.1425972,0.3848-0.3495979,0.5352001-0.6133003c0.1522999-0.2636986,0.2441006-0.5429993,0.2772999-0.8007984
			c0.0352001,0.2245998,0.125,0.4102001,0.2773991,0.5195999c0.1504002,0.1093006,0.3398018,0.1268997,0.5351009,0.0702991
			C27.2324009,31.9862995,27.0429993,32.1932983,26.8925991,32.4550018z M26.8925991,29.1854992
			c-0.1523991,0.2656002-0.2421989,0.5430012-0.2773991,0.8027c-0.0331993-0.2245998-0.125-0.410099-0.2772999-0.5194988
			C26.1875,29.3612995,26,29.3397999,25.8027,29.3983994c0.1973-0.1406002,0.3848-0.3495998,0.5352001-0.6112995
			c0.1522999-0.2637005,0.2441006-0.5429993,0.2772999-0.8008003c0.0352001,0.2245998,0.125,0.4101009,0.2773991,0.5195007
			c0.1523018,0.1093998,0.3398018,0.1289005,0.5351009,0.0683994
			C27.2324009,28.7168007,27.0449009,28.9237995,26.8925991,29.1854992z M26.8925991,25.9160004
			c-0.1523991,0.2637005-0.2421989,0.5429001-0.2773991,0.8027c-0.0331993-0.2264996-0.125-0.4101009-0.2772999-0.5195007
			C26.1875,26.0897999,26,26.0702991,25.8027,26.1289005c0.1973-0.1407013,0.3827991-0.3495998,0.5352001-0.6133003
			c0.1522999-0.2616997,0.2441006-0.5410004,0.2772999-0.7987995c0.0352001,0.2245998,0.125,0.410099,0.2773991,0.5194988
			c0.1504002,0.1093998,0.3398018,0.1268997,0.5351009,0.0684013
			C27.2324009,25.4472008,27.0429993,25.6543007,26.8925991,25.9160004z M29.9706993,53.7831993
			c-0.1522999,0.2635994-0.2440987,0.5410004-0.2772999,0.8007011c-0.0352001-0.2246017-0.125-0.410099-0.2773991-0.5195007
			c-0.1522999-0.1093979-0.3397999-0.1268997-0.5351009-0.0682983c0.1953011-0.142601,0.3828011-0.3497009,0.5351009-0.6133003
			c0.1523991-0.2637024,0.2421989-0.5410004,0.2773991-0.8008003c0.0332012,0.2245979,0.125,0.4101982,0.2772999,0.5195007
			c0.1504002,0.1093979,0.3379002,0.1269989,0.5352001,0.0683975C30.3085995,53.3125,30.1210995,53.5214005,29.9706993,53.7831993z
			 M29.9706993,50.5116997c-0.1522999,0.2656021-0.2440987,0.5429993-0.2772999,0.8027
			c-0.0352001-0.2245979-0.125-0.4120979-0.2773991-0.5195007c-0.1522999-0.1093979-0.3397999-0.1269989-0.5351009-0.0702972
			c0.1953011-0.1407013,0.3828011-0.347702,0.5351009-0.6114006c0.1523991-0.2635994,0.2421989-0.5410004,0.2773991-0.8007011
			c0.0332012,0.2246017,0.125,0.410099,0.2772999,0.5195007c0.1504002,0.1093979,0.3379002,0.1268997,0.5352001,0.0683975
			C30.3085995,50.0429001,30.1210995,50.2518997,29.9706993,50.5116997z M29.9706993,47.2421989
			c-0.1522999,0.2656021-0.2440987,0.5429001-0.2772999,0.8027c-0.0352001-0.2266006-0.125-0.4101982-0.2773991-0.5195007
			c-0.1522999-0.1093979-0.3397999-0.1289978-0.5351009-0.0703964c0.1953011-0.1406021,0.3828011-0.3496017,0.5351009-0.6113014
			c0.1523991-0.2636986,0.2421989-0.5429993,0.2773991-0.8008003c0.0332012,0.2246017,0.125,0.4101982,0.2772999,0.5195999
			c0.1504002,0.1092987,0.3379002,0.1268997,0.5352001,0.0682983
			C30.3085995,46.7733994,30.1210995,46.9804001,29.9706993,47.2421989z M29.9706993,43.972599
			c-0.1522999,0.2656021-0.2440987,0.5410004-0.2772999,0.8008003c-0.0352001-0.2245979-0.125-0.4101982-0.2773991-0.5195007
			c-0.1522999-0.1093979-0.3397999-0.1269989-0.5351009-0.0683975c0.1953011-0.142601,0.3828011-0.3496017,0.5351009-0.6133003
			c0.1523991-0.2635994,0.2421989-0.5410004,0.2773991-0.8008003c0.0332012,0.2266006,0.125,0.4101982,0.2772999,0.5214996
			c0.1504002,0.1074982,0.3379002,0.1269989,0.5352001,0.0684013C30.3085995,43.5038986,30.1210995,43.7108994,29.9706993,43.972599
			z M29.9706993,40.7030983c-0.1522999,0.2637024-0.2440987,0.5410004-0.2772999,0.8008003
			c-0.0352001-0.2245979-0.125-0.4101982-0.2773991-0.5195999c-0.1522999-0.1092987-0.3397999-0.1268997-0.5351009-0.0702972
			c0.1953011-0.1406021,0.3828011-0.3476028,0.5351009-0.6113014c0.1523991-0.2636986,0.2421989-0.5410004,0.2773991-0.8008003
			c0.0332012,0.2246017,0.125,0.410202,0.2772999,0.5195007c0.1504002,0.1093979,0.3379002,0.1269989,0.5352001,0.0704002
			C30.3085995,40.232399,30.1210995,40.4413986,29.9706993,40.7030983z M29.9706993,37.4336014
			c-0.1522999,0.2635994-0.2440987,0.5410004-0.2772999,0.8006973c-0.0352001-0.2245979-0.125-0.410099-0.2773991-0.5194969
			c-0.1522999-0.1094017-0.3397999-0.1289024-0.5351009-0.0684013c0.1953011-0.1425018,0.3828011-0.3496017,0.5351009-0.6132011
			c0.1523991-0.2636986,0.2421989-0.5429993,0.2773991-0.8008003c0.0332012,0.2246017,0.125,0.4101028,0.2772999,0.5195007
			c0.1504002,0.1094017,0.3379002,0.1269989,0.5352001,0.0684013
			C30.3085995,36.9628983,30.1210995,37.1717987,29.9706993,37.4336014z M29.9706993,34.1621017
			c-0.1522999,0.2655983-0.2440987,0.5429001-0.2772999,0.8027c-0.0352001-0.2246017-0.125-0.4121017-0.2773991-0.5195007
			c-0.1522999-0.1094017-0.3397999-0.1270027-0.5351009-0.0703011c0.1953011-0.1407013,0.3828011-0.3496017,0.5351009-0.6114006
			C29.5683994,33.5,29.6581993,33.222599,29.6933994,32.9628983c0.0332012,0.2246017,0.125,0.4101028,0.2772999,0.5195007
			c0.1504002,0.1074028,0.3379002,0.1268997,0.5352001,0.0683022
			C30.3085995,33.6932983,30.1210995,33.9003983,29.9706993,34.1621017z M29.9706993,30.8924999
			c-0.1522999,0.2656994-0.2440987,0.5429993-0.2772999,0.8027992c-0.0352001-0.2265987-0.125-0.4101982-0.2773991-0.5195999
			c-0.1522999-0.1092987-0.3397999-0.1288986-0.5351009-0.0702991c0.1953011-0.1406002,0.3828011-0.3495998,0.5351009-0.6112995
			c0.1523991-0.2656002,0.2421989-0.5430012,0.2773991-0.8027c0.0332012,0.2245998,0.125,0.410099,0.2772999,0.5214996
			c0.1504002,0.1093006,0.3379002,0.1268997,0.5352001,0.0683002
			C30.3085995,30.4237995,30.1210995,30.6308002,29.9706993,30.8924999z M29.9706993,27.6229992
			c-0.1522999,0.2637005-0.2440987,0.5410004-0.2772999,0.8008003c-0.0352001-0.2245998-0.125-0.4102001-0.2773991-0.5194988
			c-0.1522999-0.1075001-0.3397999-0.1270008-0.5351009-0.0704002c0.1953011-0.1406002,0.3828011-0.3476009,0.5351009-0.6112995
			c0.1523991-0.2637005,0.2421989-0.5410004,0.2773991-0.8008003c0.0332012,0.2265987,0.125,0.4102001,0.2772999,0.5195999
			c0.1504002,0.1092987,0.3379002,0.1288986,0.5352001,0.0702991
			C30.3085995,27.1522999,30.1210995,27.3612995,29.9706993,27.6229992z M29.9706993,24.3514996
			c-0.1522999,0.2657013-0.2440987,0.5430012-0.2772999,0.8028011c-0.0352001-0.2245998-0.125-0.4102001-0.2773991-0.5195999
			c-0.1522999-0.1093006-0.3397999-0.1269016-0.5351009-0.0703011c0.1953011-0.1406002,0.3828011-0.347599,0.5351009-0.6112995
			c0.1523991-0.2637005,0.2421989-0.5429993,0.2773991-0.8008003c0.0332012,0.2245998,0.125,0.4102001,0.2772999,0.5195007
			c0.1504002,0.1093998,0.3379002,0.1269989,0.5352001,0.0683994
			C30.3085995,23.8827991,30.1210995,24.0918007,29.9706993,24.3514996z M33.0488014,55.4902
			c-0.1523018,0.2636986-0.2441025,0.5410004-0.2773018,0.8008003c-0.0351982-0.2246017-0.125-0.410202-0.277401-0.5195999
			c-0.152298-0.1092987-0.339798-0.1268997-0.535099-0.0703011c0.1953011-0.1405983,0.3828011-0.3495979,0.535099-0.6112976
			c0.152401-0.2637024,0.2422028-0.5410004,0.277401-0.8008003c0.0331993,0.2245979,0.125,0.4120979,0.2773018,0.5214996
			c0.1503983,0.107399,0.3378983,0.1269989,0.5351982,0.0683975C33.3866997,55.0195007,33.1991997,55.2285004,33.0488014,55.4902z
			 M33.0488014,52.2206993c-0.1523018,0.2635994-0.2441025,0.5410004-0.2773018,0.8007011
			c-0.0351982-0.2265015-0.125-0.410099-0.277401-0.5195007c-0.152298-0.1093979-0.339798-0.1268997-0.535099-0.0703011
			c0.1953011-0.1405983,0.3828011-0.3476982,0.535099-0.6112976c0.152401-0.2637024,0.2422028-0.5410004,0.277401-0.8008003
			c0.0331993,0.2245979,0.125,0.4101982,0.2773018,0.5195007c0.1503983,0.1093979,0.3378983,0.1269989,0.5351982,0.0683975
			C33.3866997,51.75,33.1991997,51.9570007,33.0488014,52.2206993z M33.0488014,48.9491997
			c-0.1523018,0.2656021-0.2441025,0.5429993-0.2773018,0.8027c-0.0351982-0.2245979-0.125-0.410099-0.277401-0.5195007
			c-0.152298-0.1093979-0.339798-0.1288986-0.535099-0.0702972c0.1953011-0.1407013,0.3828011-0.347702,0.535099-0.6114006
			c0.152401-0.2635994,0.2422028-0.5429001,0.277401-0.8007011c0.0331993,0.2246017,0.125,0.410099,0.2773018,0.5195007
			c0.1503983,0.1093979,0.3378983,0.1268997,0.5351982,0.0683975
			C33.3866997,48.4804001,33.1991997,48.6893997,33.0488014,48.9491997z M33.0488014,45.6796989
			c-0.1523018,0.2656021-0.2441025,0.5410004-0.2773018,0.8007011c-0.0351982-0.2246017-0.125-0.410099-0.277401-0.5175018
			c-0.152298-0.1093979-0.339798-0.1289978-0.535099-0.0703964c0.1953011-0.1406021,0.3828011-0.3496017,0.535099-0.6132011
			c0.152401-0.2617989,0.2422028-0.5410995,0.277401-0.7989006c0.0331993,0.2246017,0.125,0.4101982,0.2773018,0.5195999
			c0.1503983,0.107399,0.3378983,0.125,0.5351982,0.0682983C33.3866997,45.2108994,33.1991997,45.4179001,33.0488014,45.6796989z
			 M33.0488014,42.410099c-0.1523018,0.2637024-0.2441025,0.5410004-0.2773018,0.8008003
			c-0.0351982-0.2245979-0.125-0.4101982-0.277401-0.5195007c-0.152298-0.1093979-0.339798-0.1269989-0.535099-0.0683975
			c0.1953011-0.142601,0.3828011-0.3496017,0.535099-0.6133003c0.152401-0.2635994,0.2422028-0.5410004,0.277401-0.8008003
			c0.0331993,0.2247009,0.125,0.4101982,0.2773018,0.5214996c0.1503983,0.1094017,0.3378983,0.1269989,0.5351982,0.0684013
			C33.3866997,41.9413986,33.1991997,42.1483994,33.0488014,42.410099z M33.0488014,39.1405983
			c-0.1523018,0.2637024-0.2441025,0.5410004-0.2773018,0.8008003c-0.0351982-0.2245979-0.125-0.4101982-0.277401-0.5195999
			c-0.152298-0.1092987-0.339798-0.1268997-0.535099-0.0702972c0.1953011-0.1406021,0.3828011-0.3496017,0.535099-0.6113014
			c0.152401-0.2636986,0.2422028-0.5410004,0.277401-0.8008003c0.0331993,0.2246017,0.125,0.410202,0.2773018,0.5195007
			c0.1503983,0.1093979,0.3378983,0.1269989,0.5351982,0.0704002C33.3866997,38.669899,33.1991997,38.8788986,33.0488014,39.1405983
			z M33.0488014,35.8690987c-0.1523018,0.2656021-0.2441025,0.5430031-0.2773018,0.8027
			c-0.0351982-0.2264977-0.125-0.410099-0.277401-0.5194969c-0.152298-0.1094017-0.339798-0.1289024-0.535099-0.0703011
			c0.1953011-0.1406021,0.3828011-0.347702,0.535099-0.6133003c0.152401-0.2616997,0.2422028-0.5410004,0.277401-0.7988014
			c0.0331993,0.2246017,0.125,0.4101028,0.2773018,0.5195007c0.1503983,0.1094017,0.3378983,0.1269989,0.5351982,0.0684013
			C33.3866997,35.4003983,33.1991997,35.607399,33.0488014,35.8690987z M33.0488014,32.5996017
			c-0.1523018,0.2655983-0.2441025,0.5429001-0.2773018,0.8027c-0.0351982-0.2246017-0.125-0.4101028-0.277401-0.5195007
			c-0.152298-0.1094017-0.339798-0.1289024-0.535099-0.0703011c0.1953011-0.1407013,0.3828011-0.3496017,0.535099-0.6114006
			c0.152401-0.2635994,0.2422028-0.5429001,0.277401-0.8006992c0.0331993,0.2245998,0.125,0.410099,0.2773018,0.5195007
			c0.1503983,0.1074009,0.3378983,0.1268978,0.5351982,0.0682983
			C33.3866997,32.1307983,33.1991997,32.3378983,33.0488014,32.5996017z M33.0488014,29.3299999
			c-0.1523018,0.2656994-0.2441025,0.5410995-0.2773018,0.8008003c-0.0351982-0.2245998-0.125-0.4101009-0.277401-0.517601
			c-0.152298-0.1092987-0.339798-0.1288986-0.535099-0.0702991c0.1953011-0.1424999,0.3828011-0.3495998,0.535099-0.6131992
			c0.152401-0.2637005,0.2422028-0.5411015,0.277401-0.8008003c0.0331993,0.2245998,0.125,0.4120998,0.2773018,0.5214996
			c0.1503983,0.107399,0.3378983,0.125,0.5351982,0.0683002C33.3866997,28.8612995,33.1991997,29.0683002,33.0488014,29.3299999z
			 M33.0488014,26.0604992c-0.1523018,0.2637005-0.2441025,0.5410004-0.2773018,0.8008003
			c-0.0351982-0.2245998-0.125-0.4102001-0.277401-0.5194988c-0.152298-0.1075001-0.339798-0.1270008-0.535099-0.0704002
			c0.1953011-0.1406002,0.3828011-0.3476009,0.535099-0.6112995c0.152401-0.2637005,0.2422028-0.5410004,0.277401-0.8008003
			c0.0331993,0.2245998,0.125,0.4102001,0.2773018,0.5195999c0.1503983,0.1092987,0.3378983,0.1288986,0.5351982,0.0702991
			C33.3866997,25.5897999,33.1991997,25.7987995,33.0488014,26.0604992z M33.0488014,22.7889996
			c-0.1523018,0.2657013-0.2441025,0.5430012-0.2773018,0.8028011c-0.0351982-0.2245998-0.125-0.4102001-0.277401-0.5195999
			c-0.152298-0.1093006-0.339798-0.1269016-0.535099-0.0703011c0.1953011-0.1406002,0.3828011-0.3495998,0.535099-0.6112995
			c0.152401-0.2637005,0.2422028-0.5429993,0.277401-0.8008003c0.0331993,0.2245998,0.125,0.4102001,0.2773018,0.5195007
			c0.1503983,0.1093998,0.3378983,0.1269989,0.5351982,0.0683994
			C33.3866997,22.3202991,33.1991997,22.5293007,33.0488014,22.7889996z M36.125,53.9257011
			c-0.1523018,0.2656975-0.2421989,0.5410995-0.2773018,0.8027992c-0.0331993-0.2246017-0.125-0.4121017-0.2773972-0.5195999
			c-0.1504021-0.1092987-0.3379021-0.1288986-0.5331993-0.0703011c0.1952972-0.1405983,0.3827972-0.3495979,0.5331993-0.6112976
			c0.1523972-0.2637024,0.2441978-0.5430031,0.2773972-0.8008003c0.0351028,0.2245979,0.125,0.4101982,0.2773018,0.5195999
			c0.1503983,0.1092987,0.3398018,0.1268997,0.5351982,0.0682983C36.4648018,53.4570007,36.2773018,53.6640015,36.125,53.9257011z
			 M36.125,50.6562004c-0.1523018,0.2655983-0.2421989,0.5429993-0.2773018,0.8008003
			c-0.0331993-0.2246017-0.125-0.410202-0.2773972-0.5195007c-0.1504021-0.1094017-0.3379021-0.1269989-0.5331993-0.0684013
			c0.1952972-0.1405983,0.3827972-0.3495979,0.5331993-0.6133003c0.1523972-0.2635994,0.2441978-0.5409966,0.2773972-0.8007965
			c0.0351028,0.2265968,0.125,0.4101982,0.2773018,0.5214996c0.1523018,0.107399,0.3398018,0.1269989,0.5351982,0.0683975
			C36.4648018,50.1855011,36.2773018,50.3945007,36.125,50.6562004z M36.125,47.3866997
			C35.9726982,47.6503983,35.8828011,47.9277,35.8476982,48.1875c-0.0331993-0.2246017-0.125-0.4101982-0.2773972-0.5195999
			c-0.1504021-0.1092987-0.3379021-0.1268997-0.5331993-0.0703011c0.1952972-0.1405983,0.3827972-0.347599,0.5331993-0.6112976
			c0.1523972-0.2637024,0.2441978-0.5410004,0.2773972-0.8008003c0.0351028,0.2245979,0.125,0.4101982,0.2773018,0.5195007
			c0.1523018,0.1093979,0.3398018,0.1288986,0.5351982,0.0703964C36.4648018,46.9160004,36.2773018,47.125,36.125,47.3866997z
			 M36.125,44.1171989c-0.1523018,0.2635994-0.2421989,0.5410004-0.2773018,0.8007011
			c-0.0331993-0.2265015-0.125-0.410099-0.2773972-0.5195007c-0.1504021-0.1093979-0.3379021-0.1269989-0.5331993-0.0703011
			c0.1952972-0.1405983,0.3827972-0.3476982,0.5331993-0.6112976c0.1523972-0.2637024,0.2441978-0.5410995,0.2773972-0.8008003
			c0.0351028,0.2245979,0.1269035,0.410099,0.2773018,0.5195007c0.1523018,0.107399,0.3398018,0.1269989,0.5351982,0.0683975
			C36.4648018,43.6464005,36.2773018,43.8535004,36.125,44.1171989z M36.125,40.8456993
			c-0.1523018,0.2656021-0.2421989,0.5429001-0.2773018,0.8027c-0.0331993-0.2245979-0.125-0.4101982-0.2773972-0.5195007
			C35.419899,41.0195007,35.232399,41,35.0371017,41.0586014c0.1952972-0.1407013,0.3827972-0.347702,0.5331993-0.6114006
			c0.1523972-0.2635994,0.2441978-0.5429001,0.2773972-0.8008003c0.0351028,0.2247009,0.125,0.4101982,0.2773018,0.5195999
			c0.1523018,0.1093979,0.3398018,0.1268997,0.5351982,0.0682983C36.4648018,40.3768997,36.2773018,40.5858994,36.125,40.8456993z
			 M36.125,37.5760994c-0.1523018,0.2657013-0.2421989,0.5410995-0.2773018,0.8008003
			c-0.0331993-0.2245979-0.125-0.410099-0.2773972-0.517601C35.419899,37.75,35.232399,37.7304001,35.0371017,37.7890015
			c0.1952972-0.1406021,0.3827972-0.3496017,0.5331993-0.6133003c0.1523972-0.2616997,0.2441978-0.5410004,0.2773972-0.7988014
			c0.0351028,0.2246017,0.125,0.4081993,0.2773018,0.5195007c0.1523018,0.1074982,0.3398018,0.125,0.5351982,0.0684013
			C36.4648018,37.107399,36.2773018,37.3143997,36.125,37.5760994z M36.125,34.3065987
			c-0.1523018,0.2656021-0.2421989,0.5430031-0.2773018,0.8008003c-0.0331993-0.2245979-0.125-0.4101982-0.2773972-0.5195007
			c-0.1504021-0.1093979-0.3379021-0.1289978-0.5331993-0.0683975c0.1952972-0.142601,0.3827972-0.3496017,0.5331993-0.6133003
			c0.1523972-0.2636986,0.2441978-0.5429993,0.2773972-0.8008003c0.0351028,0.2246017,0.125,0.4101982,0.2773018,0.5214996
			c0.1503983,0.1094017,0.3398018,0.1269989,0.5351982,0.0684013C36.4648018,33.8358994,36.2773018,34.044899,36.125,34.3065987z
			 M36.125,31.0370998c-0.1523018,0.2635994-0.2421989,0.5410004-0.2773018,0.8008003
			c-0.0331993-0.2247009-0.125-0.4102001-0.2773972-0.5195999c-0.1504021-0.1093998-0.3379021-0.1268997-0.5331993-0.0703011
			c0.1952972-0.1405983,0.3827972-0.3495998,0.5331993-0.6112995c0.1523972-0.2637005,0.2441978-0.5410004,0.2773972-0.8008003
			c0.0351028,0.2245998,0.125,0.4102001,0.2773018,0.5195007c0.1523018,0.1075001,0.3398018,0.1270008,0.5351982,0.0702991
			C36.4648018,30.5664005,36.2773018,30.7754002,36.125,31.0370998z M36.125,27.7656002
			c-0.1523018,0.2656002-0.2421989,0.5429993-0.2773018,0.8027c-0.0331993-0.2264996-0.125-0.4101009-0.2773972-0.5195007
			c-0.1504021-0.1093998-0.3379021-0.1288986-0.5331993-0.0702991c0.1952972-0.1406002,0.3827972-0.3477001,0.5331993-0.6112995
			c0.1523972-0.2637005,0.2441978-0.5430012,0.2773972-0.8008003c0.0351028,0.222599,0.1269035,0.410099,0.2773018,0.5194988
			c0.1523018,0.1093998,0.3398018,0.1270008,0.5351982,0.0684013C36.4648018,27.2968006,36.2773018,27.5039005,36.125,27.7656002z
			 M36.125,24.4960995c-0.1523018,0.2656002-0.2421989,0.5429001-0.2773018,0.8027
			c-0.0331993-0.2245998-0.125-0.4102001-0.2773972-0.5194988c-0.1504021-0.1093998-0.3379021-0.1289005-0.5331993-0.0704002
			c0.1952972-0.1406002,0.3827972-0.3495998,0.5331993-0.6112995c0.1523972-0.2637005,0.2441978-0.5429001,0.2773972-0.8008003
			c0.0351028,0.2245998,0.1269035,0.4102001,0.2773018,0.5195999c0.1523018,0.1092987,0.3398018,0.1268997,0.5351982,0.0683002
			C36.4648018,24.0272999,36.2773018,24.2343006,36.125,24.4960995z M36.125,21.2245998
			c-0.1523018,0.2656002-0.2421989,0.5429001-0.2773018,0.8027c-0.0331993-0.2245998-0.125-0.410099-0.2773972-0.5175991
			c-0.1504021-0.1093006-0.3379021-0.1289005-0.5331993-0.0703011c0.1952972-0.1425991,0.3827972-0.3495998,0.5331993-0.6133003
			c0.1523972-0.2635994,0.2441978-0.5409985,0.2773972-0.8006992c0.0351028,0.2264996,0.125,0.410099,0.2773018,0.5214005
			c0.1523018,0.1075001,0.3398018,0.125,0.5351982,0.0683994C36.4648018,20.7577991,36.2753983,20.9647999,36.125,21.2245998z
			 M39.2030983,55.6328011c-0.152298,0.2655983-0.2440987,0.5429001-0.277298,0.8008003
			c-0.0331993-0.2247009-0.125-0.4082031-0.277401-0.517601c-0.1503983-0.1094017-0.3378983-0.1288986-0.535099-0.0703011
			c0.1972008-0.142601,0.3847008-0.3495979,0.535099-0.6133003c0.152401-0.2616997,0.2442017-0.5410004,0.277401-0.7987976
			c0.0331993,0.2245979,0.125,0.4081993,0.277298,0.5194969c0.1504021,0.1074028,0.339901,0.1269035,0.535202,0.0683022
			C39.5429993,55.1640015,39.3535004,55.3711014,39.2030983,55.6328011z M39.2030983,52.3632011
			c-0.152298,0.2636986-0.2440987,0.5410995-0.277298,0.8008003c-0.0331993-0.2246017-0.125-0.4101028-0.277401-0.5195007
			c-0.1503983-0.107399-0.3378983-0.1269989-0.535099-0.0703011c0.1972008-0.1405983,0.3847008-0.3476982,0.535099-0.6113014
			c0.152401-0.2636986,0.2442017-0.5410995,0.277401-0.8007965c0.0331993,0.2245979,0.125,0.410099,0.277298,0.5214996
			c0.1504021,0.107399,0.339901,0.1268997,0.535202,0.0682983C39.5429993,51.8925018,39.3535004,52.1015015,39.2030983,52.3632011z
			 M39.2030983,49.0937004c-0.152298,0.2636986-0.2440987,0.5410004-0.277298,0.8008003
			c-0.0331993-0.2246017-0.125-0.410202-0.277401-0.5195007c-0.1503983-0.1094017-0.3378983-0.1269989-0.535099-0.0703011
			c0.1972008-0.1406975,0.3847008-0.3476982,0.535099-0.6114006c0.152401-0.2635994,0.2442017-0.5409966,0.277401-0.8007965
			c0.0331993,0.2246971,0.125,0.4101982,0.277298,0.5195999c0.1504021,0.1092987,0.339901,0.1268997,0.535202,0.0682983
			C39.5429993,48.6230011,39.3535004,48.8320007,39.2030983,49.0937004z M39.2030983,45.8222008
			c-0.152298,0.2656975-0.2440987,0.5429993-0.277298,0.8027992c-0.0331993-0.2246017-0.125-0.4101982-0.277401-0.5195999
			c-0.1503983-0.1092987-0.3378983-0.1288986-0.535099-0.0703011c0.1972008-0.1405983,0.3847008-0.347599,0.535099-0.6112976
			c0.152401-0.2637024,0.2442017-0.5430031,0.277401-0.8008003c0.0331993,0.2245979,0.125,0.4101982,0.277298,0.5195007
			c0.1504021,0.1093979,0.339901,0.1269989,0.535202,0.0683975C39.5429993,45.3535004,39.3535004,45.5625,39.2030983,45.8222008z
			 M39.2030983,42.5527c-0.152298,0.2655983-0.2440987,0.5429993-0.277298,0.8008003
			c-0.0331993-0.2246017-0.125-0.4081993-0.277401-0.517601c-0.1503983-0.1093979-0.3378983-0.1288986-0.535099-0.0703011
			c0.1972008-0.1405983,0.3847008-0.3495979,0.535099-0.6132965c0.152401-0.2617035,0.2442017-0.5410004,0.277401-0.7988014
			c0.0331993,0.2245979,0.125,0.410099,0.277298,0.5195007c0.1504021,0.107399,0.339901,0.1269989,0.535202,0.0683975
			C39.5429993,42.0839005,39.3535004,42.2910004,39.2030983,42.5527z M39.2030983,39.2831993
			c-0.152298,0.2635994-0.2440987,0.5410004-0.277298,0.8007011c-0.0331993-0.2246017-0.125-0.4081993-0.277401-0.5195007
			c-0.1503983-0.107399-0.3378983-0.1268997-0.535099-0.0682983c0.1972008-0.142601,0.3847008-0.3497009,0.535099-0.6133003
			c0.152401-0.2637024,0.2442017-0.5410004,0.277401-0.8008003c0.0331993,0.2245979,0.125,0.4101982,0.277298,0.5214996
			c0.1504021,0.107399,0.339901,0.1268997,0.535202,0.0682983C39.5429993,38.8143997,39.3535004,39.0214005,39.2030983,39.2831993z
			 M39.2030983,36.0135994c-0.152298,0.2637024-0.2440987,0.5410995-0.277298,0.8008003
			c-0.0331993-0.2245979-0.125-0.410099-0.277401-0.5195007c-0.1503983-0.1093979-0.3378983-0.1269989-0.535099-0.0702972
			c0.1972008-0.1407013,0.3847008-0.347702,0.535099-0.6114006c0.152401-0.2635994,0.2442017-0.5410004,0.277401-0.8007011
			c0.0331993,0.2246017,0.125,0.410099,0.277298,0.5195007c0.1504021,0.1093979,0.339901,0.1268997,0.535202,0.0703011
			C39.5429993,35.5429001,39.3535004,35.7518997,39.2030983,36.0135994z M39.2030983,32.7421989
			c-0.152298,0.2656021-0.2440987,0.5429001-0.277298,0.8027c-0.0331993-0.2245979-0.125-0.4101982-0.277401-0.5195007
			c-0.1503983-0.1093979-0.3378983-0.1289978-0.535099-0.0703964c0.1972008-0.1406021,0.3847008-0.3476028,0.535099-0.6113014
			c0.152401-0.2636986,0.2442017-0.5430012,0.277401-0.8008003c0.0331993,0.2245998,0.125,0.4102001,0.277298,0.5195999
			c0.1504021,0.1092987,0.339901,0.1268997,0.535202,0.0682983C39.5429993,32.2733994,39.3535004,32.482399,39.2030983,32.7421989z
			 M39.2030983,29.4726009c-0.152298,0.2655983-0.2440987,0.5429993-0.277298,0.8027992
			c-0.0331993-0.2247009-0.125-0.4102001-0.277401-0.5195999c-0.1503983-0.1093998-0.3378983-0.1289005-0.535099-0.0703011
			c0.1972008-0.1405983,0.3847008-0.3495998,0.535099-0.6112995c0.152401-0.2637005,0.2442017-0.5429993,0.277401-0.8008003
			c0.0331993,0.2245998,0.125,0.4102001,0.277298,0.5195007c0.1504021,0.1075001,0.339901,0.1270008,0.535202,0.0683994
			C39.5429993,29.0039005,39.3535004,29.2108994,39.2030983,29.4726009z M39.2030983,26.2031002
			c-0.152298,0.2656002-0.2440987,0.5429993-0.277298,0.8008003c-0.0331993-0.2245998-0.125-0.4082012-0.277401-0.517601
			c-0.1503983-0.1093998-0.3378983-0.1288986-0.535099-0.0702991c0.1972008-0.142601,0.3847008-0.3495998,0.535099-0.6133003
			c0.152401-0.2637005,0.2442017-0.5410004,0.277401-0.8008003c0.0331993,0.2245998,0.125,0.4102001,0.277298,0.5214996
			c0.1504021,0.1074009,0.339901,0.1270008,0.535202,0.0684013C39.5429993,25.7343006,39.3535004,25.9414005,39.2030983,26.2031002z
			 M39.2030983,22.9335995c-0.152298,0.2636013-0.2440987,0.5410004-0.277298,0.8007011
			c-0.0331993-0.2245998-0.125-0.4101009-0.277401-0.5195007c-0.1503983-0.107399-0.3378983-0.1268997-0.535099-0.0702991
			c0.1972008-0.1406002,0.3847008-0.3477001,0.535099-0.6113014c0.152401-0.2636986,0.2442017-0.5409985,0.277401-0.8007984
			c0.0331993,0.2245998,0.125,0.410099,0.277298,0.5194988c0.1504021,0.1093998,0.339901,0.1289005,0.535202,0.0703011
			C39.5429993,22.4629002,39.3535004,22.6718006,39.2030983,22.9335995z M39.2030983,19.6620998
			c-0.152298,0.2656002-0.2440987,0.5429001-0.277298,0.8027c-0.0331993-0.2245998-0.125-0.410099-0.277401-0.5195007
			c-0.1503983-0.1093998-0.3378983-0.1269989-0.535099-0.0702991c0.1972008-0.1406994,0.3847008-0.3477001,0.535099-0.6114006
			C38.8008003,19,38.892601,18.7206993,38.9258003,18.4629002c0.0331993,0.2245998,0.125,0.410099,0.277298,0.5195007
			c0.1504021,0.1093998,0.339901,0.1268997,0.535202,0.0682983C39.5429993,19.1933002,39.3535004,19.4022999,39.2030983,19.6620998z
			"/>
	</g>
</g>
</svg>
